# xmcd
#
# Track frame offsets: 
#        150
#        14268
#        27861
#        40489
#        54730
#        68008
#        81104
#        95095
#        107550
#        120836
#        134303
#        148129
#        161521
#        179076
#        189429
#        206737
#        221755
#        235575
#        246064
#        254753
#
# Disc length: 3615 seconds
#
# Revision: 1
# Processed by: cddbd v1.5.2PL0 Copyright (c) Steve Scherf et al.
# Submitted via: ExactAudioCopy v1.1
#
DISCID=220e1d14
DTITLE=Billie Holiday and Lester Young - Complete Billie Holiday and Leste
DTITLE=r Young [CD 3on3)
DYEAR=2003
DGENRE=Jazz
TTITLE0=The Man I Love
TTITLE1=You're Just A No Account
TTITLE2=You're A Lucky Guy
TTITLE3=I'm Pulling Through
TTITLE4=Laughing At Life (Prise Master)
TTITLE5=Laughing At Life
TTITLE6=Time On My Hands
TTITLE7=The Man I Love
TTITLE8=Let's Do It (Prise Master)
TTITLE9=Let's Do It
TTITLE10=All Of Me (Prise Master)
TTITLE11=All Of Me
TTITLE12=All Of Me
TTITLE13=I Cried For You
TTITLE14=Fine And Mellow
TTITLE15=He's Funny That Way
TTITLE16=The Man I Love
TTITLE17=Gee Baby, Ain't I Good To You?
TTITLE18=All Of Me
TTITLE19=Billie's Blues (I Love A Man)
EXTD=
EXTT0=
EXTT1=
EXTT2=
EXTT3=
EXTT4=
EXTT5=
EXTT6=
EXTT7=
EXTT8=
EXTT9=
EXTT10=
EXTT11=
EXTT12=
EXTT13=
EXTT14=
EXTT15=
EXTT16=
EXTT17=
EXTT18=
EXTT19=
PLAYORDER=
